<svg width="1728" height="384" viewBox="0 0 1728 384" fill="none" xmlns="http://www.w3.org/2000/svg">
<path d="M0 192L22.2 185.64C44.28 178.8 88.8 166.8 133.2 147.24C177.24 128.4 222 102 266.4 134.4C310.2 166.8 354 255.6 398.4 294.36C443.04 332.4 487.2 320.4 531.6 313.56C576 307.2 620.4 307.2 664.8 262.44C708.96 217.2 753.6 128.4 798 108.84C841.8 90 885.6 140.4 930 134.4C974.76 128.4 1018.8 63.6 1063.2 51.24C1107.72 38.4 1152 76.8 1196.4 134.4C1240.56 192 1285.2 268.8 1329.6 288C1373.52 307.2 1418.4 268.8 1461.6 268.8C1506.48 268.8 1550.4 307.2 1594.8 313.56C1639.44 320.4 1683.6 294 1706.4 281.64L1728 268.8V0H1705.8C1683.72 0 1639.2 0 1594.8 0C1550.76 0 1506 0 1461.6 0C1417.8 0 1374 0 1329.6 0C1284.96 0 1240.8 0 1196.4 0C1152 0 1107.6 0 1063.2 0C1019.04 0 974.4 0 930 0C886.2 0 842.4 0 798 0C753.24 0 709.2 0 664.8 0C620.28 0 576 0 531.6 0C487.44 0 442.8 0 398.4 0C354.48 0 309.6 0 266.4 0C221.52 0 177.6 0 133.2 0C88.56 0 44.4 0 21.6 0H0V192Z" fill="white"/>
</svg>
