<svg width="366" height="367" viewBox="0 0 366 367" fill="none" xmlns="http://www.w3.org/2000/svg">
<path fill-rule="evenodd" clip-rule="evenodd" d="M30.4643 81.9064C24.8898 90.2989 19.9891 99.1776 15.8395 108.465L290.547 34.858C282.402 28.9415 273.752 23.68 264.672 19.1507L30.4643 81.9064ZM2.61351 152.067C4.02438 143.795 5.99026 135.712 8.47147 127.858L306.609 47.9719C312.742 53.5842 318.493 59.6087 323.815 66.0015L2.61351 152.067ZM0.45456 170.064C0.153212 174.358 0 178.694 0 183.065C0 185.521 0.0483728 187.966 0.144218 190.399L345.18 97.9468C342.012 91.9244 338.517 86.1001 334.72 80.4973L0.45456 170.064ZM6.21118 230.522C4.19856 223.003 2.6527 215.293 1.60657 207.425L352.419 113.425C355.39 120.642 357.913 128.091 359.953 135.737L6.21118 230.522ZM11.3156 246.572C13.7096 253.044 16.4591 259.344 19.5402 265.448L365.839 172.657C365.451 165.726 364.677 158.898 363.538 152.194L11.3156 246.572ZM42.5524 300.413C37.3093 294.142 32.4782 287.514 28.1007 280.572L366 190.032C365.69 198.317 364.83 206.461 363.454 214.428L42.5524 300.413ZM55.4965 314.363C61.5159 320.212 67.9361 325.652 74.7121 330.635L350.729 256.677C354.088 249.035 356.941 241.12 359.244 232.974L55.4965 314.363ZM124.483 356.556C113.781 352.944 103.523 348.369 93.8108 342.935L340.29 276.892C334.511 286.555 327.865 295.642 320.462 304.044L124.483 356.556ZM159.408 364.616C167.152 365.615 175.049 366.13 183.065 366.13C224.906 366.13 263.469 352.093 294.3 328.471L159.408 364.616ZM238.845 8.6532C221.258 3.0335 202.516 0 183.065 0C129.397 0 81.123 23.0941 47.6384 59.8867L238.845 8.6532Z" fill="#9FFFBD"/>
</svg>
