<svg width="1728" height="384" viewBox="0 0 1728 384" fill="none" xmlns="http://www.w3.org/2000/svg">
<g clip-path="url(#clip0_28_53)">
<path d="M0 38.3999L22.2 70.4399C44.28 102 88.8 166.8 133.2 217.56C177.24 268.8 222 307.2 266.4 326.4C310.2 345.6 354 345.6 398.4 300.84C443.04 255.6 487.2 166.8 531.6 153.6C576 140.4 620.4 205.2 664.8 249.6C708.96 294 753.6 320.4 798 326.4C841.8 332.4 885.6 320.4 930 281.64C974.76 243.6 1018.8 178.8 1063.2 140.76C1107.72 102 1152 89.9999 1196.4 108.84C1240.56 128.4 1285.2 178.8 1329.6 230.4C1373.52 282 1418.4 332.4 1461.6 326.4C1506.48 320.4 1550.4 255.6 1594.8 236.76C1639.44 217.2 1683.6 243.6 1706.4 255.96L1728 268.8V384H1705.8C1683.72 384 1639.2 384 1594.8 384C1550.76 384 1506 384 1461.6 384C1417.8 384 1374 384 1329.6 384C1284.96 384 1240.8 384 1196.4 384C1152 384 1107.6 384 1063.2 384C1019.04 384 974.4 384 930 384C886.2 384 842.4 384 798 384C753.24 384 709.2 384 664.8 384C620.28 384 576 384 531.6 384C487.44 384 442.8 384 398.4 384C354.48 384 309.6 384 266.4 384C221.52 384 177.6 384 133.2 384C88.56 384 44.4 384 21.6 384H0V38.3999Z" fill="white"/>
</g>
<defs>
<clipPath id="clip0_28_53">
<rect width="1728" height="384" fill="white"/>
</clipPath>
</defs>
</svg>
