<svg width="308" height="309" viewBox="0 0 308 309" fill="none" xmlns="http://www.w3.org/2000/svg">
<path fill-rule="evenodd" clip-rule="evenodd" d="M25.6368 68.9263C20.9457 75.9889 16.8216 83.4607 13.3295 91.2767L244.503 29.3339C237.65 24.355 230.37 19.9272 222.729 16.1157L25.6368 68.9263ZM2.19935 127.969C3.38665 121.008 5.04101 114.205 7.12906 107.596L258.02 40.3696C263.182 45.0926 268.021 50.1624 272.5 55.5422L2.19935 127.969ZM0.382525 143.114C0.128932 146.728 0 150.376 0 154.055C0 156.122 0.0407044 158.179 0.121355 160.226L290.479 82.425C287.813 77.357 284.872 72.4557 281.677 67.7409L0.382525 143.114ZM5.22689 193.991C3.53319 187.663 2.2323 181.175 1.35195 174.554L296.571 95.4504C299.071 101.524 301.194 107.792 302.912 114.227L5.22689 193.991ZM9.52241 207.498C11.5371 212.944 13.8508 218.246 16.4437 223.382L307.865 145.296C307.538 139.464 306.886 133.718 305.928 128.076L9.52241 207.498ZM35.8091 252.807C31.3969 247.529 27.3314 241.952 23.6476 236.11L308 159.918C307.739 166.89 307.015 173.743 305.857 180.448L35.8091 252.807ZM46.7019 264.546C51.7674 269.468 57.1703 274.046 62.8725 278.239L295.148 216.001C297.976 209.57 300.377 202.91 302.315 196.055L46.7019 264.546ZM104.756 300.053C95.7504 297.013 87.1178 293.163 78.9447 288.591L286.364 233.013C281.501 241.145 275.909 248.791 269.678 255.862L104.756 300.053ZM134.147 306.835C140.664 307.676 147.309 308.109 154.055 308.109C189.265 308.109 221.717 296.297 247.662 276.419L134.147 306.835ZM200.994 7.28177C186.195 2.55272 170.423 0 154.055 0C108.892 0 68.2677 19.4342 40.0895 50.3961L200.994 7.28177Z" fill="#D9F3FF"/>
</svg>
