<svg width="1269" height="458" viewBox="0 0 1269 458" fill="none" xmlns="http://www.w3.org/2000/svg">
<path d="M0.353704 285C5.47557 218.268 55.5 141.5 107.5 119C107.5 119 873.5 -169 1200.85 154C1241.88 194.484 1268.93 227.36 1268.85 285C1268.76 356.121 1226.13 398.397 1164.85 434.5C1090.33 478.411 1028.93 447.105 943.354 434.5C856.759 421.745 814.804 352.948 728.854 369.5C675.335 379.806 659.747 437.945 605.354 434.5C540.766 430.409 542.381 346.907 481.854 324C369.698 281.555 312.758 458.929 195.354 434.5C101.409 414.952 -6.98968 380.676 0.353704 285Z" fill="white"/>
</svg>
