<svg width="35" height="35" viewBox="0 0 35 35" fill="none" xmlns="http://www.w3.org/2000/svg">
<rect width="35" height="35" rx="10" fill="#FFCC16"/>
<path d="M10.5 9.875C9.63805 9.875 8.8114 10.2174 8.2019 10.8269C7.59241 11.4364 7.25 12.263 7.25 13.125V13.4516L17 18.702L26.75 13.4533V13.125C26.75 12.263 26.4076 11.4364 25.7981 10.8269C25.1886 10.2174 24.362 9.875 23.5 9.875H10.5ZM26.75 15.2976L17.3851 20.34C17.2668 20.4037 17.1344 20.4371 17 20.4371C16.8656 20.4371 16.7332 20.4037 16.6149 20.34L7.25 15.2976V22.875C7.25 23.737 7.59241 24.5636 8.2019 25.1731C8.8114 25.7826 9.63805 26.125 10.5 26.125H23.5C24.362 26.125 25.1886 25.7826 25.7981 25.1731C26.4076 24.5636 26.75 23.737 26.75 22.875V15.2976Z" fill="white"/>
</svg>
