<svg width="35" height="35" viewBox="0 0 35 35" fill="none" xmlns="http://www.w3.org/2000/svg">
<rect width="35" height="35" rx="10" fill="#FFCC16"/>
<path d="M24.4139 25.3332C16.5939 25.3442 10.6584 19.3382 10.6667 11.5859C10.6667 11.079 11.0774 10.6665 11.5834 10.6665H14.0034C14.4571 10.6665 14.843 11.0002 14.9099 11.4493C15.0695 12.5265 15.3829 13.5751 15.8404 14.5633L15.9348 14.7668C15.9982 14.9037 16.0118 15.0585 15.9734 15.2044C15.9349 15.3503 15.8467 15.4782 15.7239 15.5661C14.9741 16.1014 14.6881 17.1785 15.272 18.0182C16.0072 19.0754 16.9247 19.9932 17.9817 20.7288C18.8223 21.3118 19.8994 21.0258 20.4338 20.2768C20.5215 20.1538 20.6496 20.0652 20.7957 20.0266C20.9418 19.9879 21.0969 20.0015 21.234 20.0651L21.4366 20.1586C22.4248 20.6169 23.4734 20.9304 24.5505 21.0899C24.9997 21.1568 25.3334 21.5428 25.3334 21.9974V24.4165C25.3334 24.537 25.3096 24.6562 25.2635 24.7675C25.2174 24.8788 25.1498 24.9799 25.0646 25.065C24.9793 25.1501 24.8782 25.2176 24.7669 25.2637C24.6555 25.3097 24.5362 25.3333 24.4158 25.3332H24.4139Z" fill="white"/>
</svg>
